<mxfile host="app.diagrams.net" agent="Mozilla/5.0 (Windows NT 10.0; Win64; x64) AppleWebKit/537.36 (KHTML, like Gecko) Chrome/134.0.0.0 Safari/537.36" version="26.1.3" pages="2">
  <diagram name="Page-1" id="w52jkF3-wR7kU9HDOXUC">
    <mxGraphModel dx="1434" dy="866" grid="1" gridSize="10" guides="1" tooltips="1" connect="1" arrows="1" fold="1" page="1" pageScale="1" pageWidth="1169" pageHeight="1654" math="0" shadow="0">
      <root>
        <mxCell id="0" />
        <mxCell id="1" parent="0" />
        <mxCell id="jPUYg1EqjeXe6Diemlhv-1" value="Data entry&lt;div&gt;User entry (IAM)&lt;/div&gt;" style="rounded=0;whiteSpace=wrap;html=1;fillColor=#dae8fc;strokeColor=none;shadow=0;glass=0;" parent="1" vertex="1">
          <mxGeometry x="201" y="141" width="120" height="40" as="geometry" />
        </mxCell>
        <mxCell id="jPUYg1EqjeXe6Diemlhv-2" value="Kernesystem" style="rounded=0;whiteSpace=wrap;html=1;fillColor=#dae8fc;strokeColor=none;shadow=0;glass=0;" parent="1" vertex="1">
          <mxGeometry x="401" y="141" width="120" height="40" as="geometry" />
        </mxCell>
        <mxCell id="jPUYg1EqjeXe6Diemlhv-3" value="Opkrævning" style="rounded=0;whiteSpace=wrap;html=1;fillColor=#dae8fc;strokeColor=none;shadow=0;glass=0;" parent="1" vertex="1">
          <mxGeometry x="601" y="141" width="120" height="40" as="geometry" />
        </mxCell>
        <mxCell id="jPUYg1EqjeXe6Diemlhv-4" value="Forsendelse&lt;div&gt;Meddelelse&lt;/div&gt;" style="rounded=0;whiteSpace=wrap;html=1;fillColor=#dae8fc;strokeColor=none;shadow=0;glass=0;" parent="1" vertex="1">
          <mxGeometry x="801" y="141" width="120" height="40" as="geometry" />
        </mxCell>
        <mxCell id="I2_qbIUxM6kLmOSu3rbW-21" value="" style="edgeStyle=orthogonalEdgeStyle;rounded=0;orthogonalLoop=1;jettySize=auto;html=1;endArrow=none;startFill=0;" parent="1" source="jPUYg1EqjeXe6Diemlhv-6" target="I2_qbIUxM6kLmOSu3rbW-8" edge="1">
          <mxGeometry relative="1" as="geometry" />
        </mxCell>
        <mxCell id="jPUYg1EqjeXe6Diemlhv-6" value="&lt;div&gt;&lt;b&gt;&lt;br&gt;&lt;/b&gt;&lt;/div&gt;&lt;b&gt;Scenarie 1a&lt;/b&gt;&lt;div&gt;&lt;u&gt;CVR&lt;/u&gt;&lt;/div&gt;&lt;div&gt;Lavbund&lt;/div&gt;&lt;div&gt;Husdyr&lt;/div&gt;&lt;div&gt;&lt;br&gt;&lt;/div&gt;&lt;div&gt;&lt;br&gt;&lt;/div&gt;&lt;div&gt;[konsoliderede data fra SGAV, vores kravspec.]&lt;/div&gt;" style="rounded=0;whiteSpace=wrap;html=1;dashed=1;dashPattern=1 2;" parent="1" vertex="1">
          <mxGeometry x="40" y="200" width="120" height="160" as="geometry" />
        </mxCell>
        <mxCell id="I2_qbIUxM6kLmOSu3rbW-24" style="edgeStyle=orthogonalEdgeStyle;rounded=0;orthogonalLoop=1;jettySize=auto;html=1;entryX=0;entryY=0.5;entryDx=0;entryDy=0;strokeWidth=1;strokeColor=#000000;dashed=1;dashPattern=1 2;" parent="1" source="jPUYg1EqjeXe6Diemlhv-8" target="jPUYg1EqjeXe6Diemlhv-9" edge="1">
          <mxGeometry relative="1" as="geometry" />
        </mxCell>
        <mxCell id="jPUYg1EqjeXe6Diemlhv-8" value="Eksisterende WS (API)" style="rounded=1;whiteSpace=wrap;html=1;" parent="1" vertex="1">
          <mxGeometry x="201" y="240" width="120" height="40" as="geometry" />
        </mxCell>
        <mxCell id="I2_qbIUxM6kLmOSu3rbW-25" style="edgeStyle=orthogonalEdgeStyle;rounded=0;orthogonalLoop=1;jettySize=auto;html=1;entryX=0;entryY=0.5;entryDx=0;entryDy=0;strokeWidth=1;strokeColor=#000000;dashed=1;dashPattern=1 2;" parent="1" source="jPUYg1EqjeXe6Diemlhv-9" target="jPUYg1EqjeXe6Diemlhv-11" edge="1">
          <mxGeometry relative="1" as="geometry" />
        </mxCell>
        <mxCell id="jPUYg1EqjeXe6Diemlhv-9" value="SAP PS" style="rounded=1;whiteSpace=wrap;html=1;fillColor=#ffe6cc;strokeColor=#67AB9F;" parent="1" vertex="1">
          <mxGeometry x="401" y="240" width="120" height="40" as="geometry" />
        </mxCell>
        <mxCell id="jPUYg1EqjeXe6Diemlhv-10" value="Udstilling" style="rounded=0;whiteSpace=wrap;html=1;fillColor=#dae8fc;strokeColor=none;shadow=0;glass=0;" parent="1" vertex="1">
          <mxGeometry x="1000" y="141" width="120" height="40" as="geometry" />
        </mxCell>
        <mxCell id="I2_qbIUxM6kLmOSu3rbW-26" style="edgeStyle=orthogonalEdgeStyle;rounded=0;orthogonalLoop=1;jettySize=auto;html=1;entryX=0;entryY=0.5;entryDx=0;entryDy=0;strokeWidth=1;strokeColor=#000000;dashed=1;dashPattern=1 2;" parent="1" source="jPUYg1EqjeXe6Diemlhv-11" target="jPUYg1EqjeXe6Diemlhv-12" edge="1">
          <mxGeometry relative="1" as="geometry" />
        </mxCell>
        <mxCell id="jPUYg1EqjeXe6Diemlhv-11" value="Skattekontoen" style="rounded=1;whiteSpace=wrap;html=1;" parent="1" vertex="1">
          <mxGeometry x="601" y="240" width="120" height="40" as="geometry" />
        </mxCell>
        <mxCell id="jPUYg1EqjeXe6Diemlhv-12" value="AogD" style="rounded=1;whiteSpace=wrap;html=1;" parent="1" vertex="1">
          <mxGeometry x="801" y="240" width="120" height="40" as="geometry" />
        </mxCell>
        <mxCell id="jPUYg1EqjeXe6Diemlhv-14" value="Måske AogD arkiv" style="rounded=1;whiteSpace=wrap;html=1;" parent="1" vertex="1">
          <mxGeometry x="1000" y="281" width="120" height="40" as="geometry" />
        </mxCell>
        <mxCell id="I2_qbIUxM6kLmOSu3rbW-8" value="&lt;div&gt;&lt;b&gt;&lt;br&gt;&lt;/b&gt;&lt;/div&gt;&lt;b&gt;&lt;div&gt;&lt;br&gt;&lt;/div&gt;Scenarie 1b&lt;/b&gt;&lt;div&gt;&lt;u&gt;CPR&lt;/u&gt;&lt;/div&gt;&lt;div&gt;Lavbund&lt;/div&gt;&lt;div&gt;&lt;br&gt;&lt;/div&gt;&lt;div&gt;&lt;br&gt;&lt;/div&gt;&lt;div&gt;&lt;br&gt;&lt;/div&gt;&lt;div&gt;&lt;br&gt;&lt;/div&gt;&lt;div&gt;[beregning sker hos SGAV]&lt;/div&gt;&lt;div&gt;&lt;br&gt;&lt;/div&gt;" style="rounded=0;whiteSpace=wrap;html=1;dashed=1;dashPattern=1 2;" parent="1" vertex="1">
          <mxGeometry x="40" y="400" width="120" height="160" as="geometry" />
        </mxCell>
        <mxCell id="I2_qbIUxM6kLmOSu3rbW-27" style="edgeStyle=orthogonalEdgeStyle;rounded=0;orthogonalLoop=1;jettySize=auto;html=1;strokeWidth=1;strokeColor=#000000;dashed=1;dashPattern=1 2;" parent="1" source="I2_qbIUxM6kLmOSu3rbW-9" target="I2_qbIUxM6kLmOSu3rbW-11" edge="1">
          <mxGeometry relative="1" as="geometry" />
        </mxCell>
        <mxCell id="I2_qbIUxM6kLmOSu3rbW-9" value="Eksisterende WS (API)" style="rounded=1;whiteSpace=wrap;html=1;" parent="1" vertex="1">
          <mxGeometry x="201" y="440" width="120" height="40" as="geometry" />
        </mxCell>
        <mxCell id="I2_qbIUxM6kLmOSu3rbW-28" style="edgeStyle=orthogonalEdgeStyle;rounded=0;orthogonalLoop=1;jettySize=auto;html=1;entryX=0;entryY=0.5;entryDx=0;entryDy=0;strokeWidth=1;strokeColor=#000000;dashed=1;dashPattern=1 2;" parent="1" source="I2_qbIUxM6kLmOSu3rbW-11" target="I2_qbIUxM6kLmOSu3rbW-12" edge="1">
          <mxGeometry relative="1" as="geometry" />
        </mxCell>
        <mxCell id="I2_qbIUxM6kLmOSu3rbW-11" value="DMO" style="rounded=1;whiteSpace=wrap;html=1;fillColor=#ffe6cc;strokeColor=#67AB9F;" parent="1" vertex="1">
          <mxGeometry x="500" y="440" width="120" height="40" as="geometry" />
        </mxCell>
        <mxCell id="I2_qbIUxM6kLmOSu3rbW-12" value="AogD" style="rounded=1;whiteSpace=wrap;html=1;" parent="1" vertex="1">
          <mxGeometry x="801" y="440" width="120" height="40" as="geometry" />
        </mxCell>
        <mxCell id="RFjUGFnFEoxHwDggdkSX-1" value="&lt;font style=&quot;font-size: 10px;&quot;&gt;slutbruger&lt;/font&gt;" style="rounded=1;whiteSpace=wrap;html=1;fontSize=9;strokeColor=none;" parent="1" vertex="1">
          <mxGeometry x="1000" y="321" width="120" height="20" as="geometry" />
        </mxCell>
        <mxCell id="RFjUGFnFEoxHwDggdkSX-2" value="&lt;font style=&quot;font-size: 10px;&quot;&gt;Systembruger&lt;/font&gt;" style="rounded=1;whiteSpace=wrap;html=1;fontSize=9;strokeColor=none;" parent="1" vertex="1">
          <mxGeometry x="201" y="280" width="120" height="20" as="geometry" />
        </mxCell>
        <mxCell id="RFjUGFnFEoxHwDggdkSX-3" value="&lt;font style=&quot;font-size: 10px;&quot;&gt;Systembruger&lt;/font&gt;" style="rounded=1;whiteSpace=wrap;html=1;fontSize=9;strokeColor=none;" parent="1" vertex="1">
          <mxGeometry x="201" y="480" width="120" height="20" as="geometry" />
        </mxCell>
        <mxCell id="RFjUGFnFEoxHwDggdkSX-4" value="&lt;font style=&quot;font-size: 10px;&quot;&gt;Slutbruger&lt;/font&gt;" style="rounded=1;whiteSpace=wrap;html=1;fontSize=9;strokeColor=none;" parent="1" vertex="1">
          <mxGeometry x="1000" y="520" width="120" height="20" as="geometry" />
        </mxCell>
        <mxCell id="RFjUGFnFEoxHwDggdkSX-5" value="Måske AogD arkiv" style="rounded=1;whiteSpace=wrap;html=1;" parent="1" vertex="1">
          <mxGeometry x="1000" y="480" width="120" height="40" as="geometry" />
        </mxCell>
      </root>
    </mxGraphModel>
  </diagram>
  <diagram id="lDGCoRgxa4W9dzSs3qXx" name="Page-2">
    <mxGraphModel grid="1" page="1" gridSize="10" guides="1" tooltips="1" connect="1" arrows="1" fold="1" pageScale="1" pageWidth="1169" pageHeight="1654" math="0" shadow="0">
      <root>
        <mxCell id="0" />
        <mxCell id="1" parent="0" />
      </root>
    </mxGraphModel>
  </diagram>
</mxfile>
